inDegrees=no
num_controls=7
num_derivatives=13
num_iterations=130
num_multipliers=7
num_parameters=0
num_slacks=7
num_states=26
objective=0.469832
objective_accelerations=0.063341
objective_balance=0.002097
objective_effort=0.020140
objective_height=0.374735
objective_ligament=0.009519
solver_duration=1810.038696
status=Solve_Succeeded
success=true
DataType=double
version=3
OpenSimVersion=4.5
endheader
time	/jointset/ground_pelvis/pelvis_tilt/value	/jointset/ground_pelvis/pelvis_tx/value	/jointset/ground_pelvis/pelvis_ty/value	/jointset/hip_l/hip_flexion_l/value	/jointset/hip_l/hip_adduction_l/value	/jointset/hip_l/hip_rotation_l/value	/jointset/back/lumbar_extension/value	/jointset/patellofemoral_l/patellar_flexion_l/value	/jointset/knee_l/knee_flexion_l/value	/jointset/knee_l/knee_adduction_l/value	/jointset/knee_l/knee_rotation_l/value	/jointset/ankle_l/ankle_angle_l/value	/jointset/subtalar_l/subtalar_angle_l/value	/jointset/ground_pelvis/pelvis_tilt/speed	/jointset/ground_pelvis/pelvis_tx/speed	/jointset/ground_pelvis/pelvis_ty/speed	/jointset/hip_l/hip_flexion_l/speed	/jointset/hip_l/hip_adduction_l/speed	/jointset/hip_l/hip_rotation_l/speed	/jointset/back/lumbar_extension/speed	/jointset/patellofemoral_l/patellar_flexion_l/speed	/jointset/knee_l/knee_flexion_l/speed	/jointset/knee_l/knee_adduction_l/speed	/jointset/knee_l/knee_rotation_l/speed	/jointset/ankle_l/ankle_angle_l/speed	/jointset/subtalar_l/subtalar_angle_l/speed	/forceset/tau_hip_flexion_l	/forceset/tau_hip_adduction_l	/forceset/tau_hip_rotation_l	/forceset/tau_knee_flexion_l	/forceset/tau_ankle_angle_l	/forceset/tau_subtalar_angle_l	/forceset/tau_lumbar_extension	lambda_cid13_p0	lambda_cid13_p1	lambda_cid13_p2	lambda_cid13_p3	lambda_cid13_p4	lambda_cid13_p5	lambda_cid14_p0	/jointset/ground_pelvis/pelvis_tilt/accel	/jointset/ground_pelvis/pelvis_tx/accel	/jointset/ground_pelvis/pelvis_ty/accel	/jointset/hip_l/hip_flexion_l/accel	/jointset/hip_l/hip_adduction_l/accel	/jointset/hip_l/hip_rotation_l/accel	/jointset/back/lumbar_extension/accel	/jointset/patellofemoral_l/patellar_flexion_l/accel	/jointset/knee_l/knee_flexion_l/accel	/jointset/knee_l/knee_adduction_l/accel	/jointset/knee_l/knee_rotation_l/accel	/jointset/ankle_l/ankle_angle_l/accel	/jointset/subtalar_l/subtalar_angle_l/accel	gamma_cid13_p0	gamma_cid13_p1	gamma_cid13_p2	gamma_cid13_p3	gamma_cid13_p4	gamma_cid13_p5	gamma_cid14_p0
0.5	-0.410977636340227	-0.06519404619298921	0.7763227199670982	1.181513114273874	-0.3520336656784755	-0.06550248160850201	-0.4080067879461167	0.713776059101197	0.713776059101209	-0.05157271448234325	-0.1745299148539635	0.04867041984090666	0.08374516026802607	-1.296315961367971	-0.4027941689542246	-0.500623462182114	2.873917825846375	0.04123136471372284	0.4345541238986041	-0.2846469417934627	1.348154023705272	1.34815402370531	0.2080331783036931	0.0001193199892218926	-0.1291305125930783	-0.0009329707708263165	-0.16549697282113	-0.0017565344345987	0.00500159334550841	-0.1443880157420517	0.09257015254382286	0.01374596849699756	0.1502086095224549	5.341670121812098	-6.151960321136788	-0.1605567651123079	-7.559554635185413	-435.384788786144	-70.44499605505918	-14.6159143160473	0.5311278464331071	0.686216566200038	-0.3872764306197938	-1.698646723709378	0.106971756155666	-0.3675315703113606	1.588602969560886	-1.06000939212987	-1.060009392129879	-0.4280629886986299	0.07651904951799492	-0.02016938643785328	0.1089387463140809	8.520845130014701e-09	-1.336939051535611e-06	-6.868542146217703e-07	-2.920680368715112e-07	-2.246303158136383e-07	1.938858639135981e-07	-1.539375384395706e-07
0.51	-0.4239116154856372	-0.06918705017756929	0.7712984121650307	1.210162009977252	-0.3516167939238078	-0.06117963004224201	-0.4107748104967587	0.7272023166811629	0.7272023166811836	-0.04951315873229936	-0.1745286702184905	0.04737814100027177	0.08374050664586209	-1.29031470914643	-0.3957520778016479	-0.5041184801573391	2.855458923844902	0.04213391478795466	0.4299485005421218	-0.268948660351251	1.336888507229435	1.336888507229457	0.203877668465626	0.0001163951733602837	-0.1293068748953873	-1.197068545639809e-06	-0.1721500675978858	-0.001262690587390841	0.004516534172003732	-0.1450733747088956	0.09485152267384715	0.0145844679652791	0.1548671126116313	5.930759855172455	-6.461196363185779	-0.2918093471430596	-8.117662201076586	-439.0691041513334	-70.69532499791188	-14.06671842244227	0.6593764171795449	0.7213253838328886	-0.3127082322008164	-1.979892678170866	0.08086780488795779	-0.5173208575528399	1.561776929108009	-1.191143009413712	-1.191143009416168	-0.4096534599386516	-0.04078541394264031	-0.01366948668859963	0.08509965137839461	-3.206002690485601e-09	-1.169363405061864e-06	-5.046270076192654e-07	-2.588706231990829e-07	-2.264176984781359e-07	2.262874407812385e-07	-1.540478126680472e-07
0.52	-0.4367806316073992	-0.07310800925181433	0.7662427354329654	1.238614240512654	-0.3511911024340316	-0.05690488333739412	-0.4133855829934672	0.7405096550495496	0.7405096550495794	-0.04749522977635103	-0.1745278722645387	0.04608463856970155	0.08374513135455956	-1.283323356638286	-0.3883851868872175	-0.5068972481816434	2.834584792251242	0.04299531173542716	0.4249331516161927	-0.2531969310067706	1.32437018138947	1.324370181389476	0.1997078194844428	2.998368532241722e-05	-0.1293752305801432	0.0009226954014683331	-0.1788031623746412	-0.0007688467401830614	0.004031474998501794	-0.1457587336757398	0.09713289280387126	0.01542296743356051	0.1595256157008082	6.518879154585544	-6.769852048327028	-0.4236237955132845	-8.672275833084445	-442.7672809334315	-70.95746247802845	-13.52114739572155	0.7291479037539661	0.7511765185707764	-0.2440264404356769	-2.181692642147031	0.09874113080380098	-0.4494766842006955	1.599292550014619	-1.310571264955742	-1.310571264955743	-0.4309308173218515	0.05982171508273724	0.001431937072766616	0.1073624998607375	-6.230552083141048e-08	-7.467879492616974e-07	1.977611887435585e-07	-1.502146717637409e-07	-3.155298768631428e-07	3.351516270333816e-07	-1.872320281378691e-07
0.53	-0.4495748261037326	-0.07695379235106058	0.7611628661406302	1.266845800250301	-0.3507575092786855	-0.0526793286366217	-0.4158387346675979	0.7536855673355524	0.7536855673355648	-0.04552163214966158	-0.1745263986867049	0.04479079531096216	0.08375832760845905	-1.275354642578742	-0.3807293417487153	-0.5089544698637308	2.811344429921497	0.04372189467541041	0.4200721291999537	-0.2374404656742798	1.310613143712321	1.310613143712339	0.1950505580106832	0.0002238847938337577	-0.129377829835308	0.001720923127843576	-0.1855432051303139	-0.0003499664899180533	0.003494202469484378	-0.1462284013617905	0.09899046869458583	0.01629601758185658	0.1641653778239588	6.966766905738482	-7.080236098075165	-0.5422819529370839	-9.062076705383088	-446.5135053337079	-71.20923200002747	-12.97934848749252	0.8548387846068746	0.7790835649079	-0.1683214361035619	-2.452652527515477	0.05944478888540664	-0.5204365526540257	1.562764246631726	-1.438098901504247	-1.438098901502391	-0.4773997701299515	-0.006814378357325633	0.001213542301008509	0.06672441535003618	-1.071427784582128e-07	-4.151128357630976e-07	7.39946886366699e-07	-6.3224809065456e-08	-3.749987344331442e-07	4.254404762329733e-07	-2.111906942406922e-07
0.54	-0.4622845123339605	-0.08072175798823823	0.7560660743506725	1.294833467464826	-0.3503166847112816	-0.04850558846647491	-0.4181345335440504	0.7667179434683032	0.766717943468295	-0.04359346232926244	-0.1745241838352017	0.04349738993949356	0.08377964044088711	-1.266421703417107	-0.3728216944734972	-0.5102817477061508	2.78580628762666	0.04444159414698576	0.414570245490974	-0.2217263714711719	1.295662950738783	1.295662950738814	0.1906222582278467	0.0001782384186384479	-0.1292876531259885	0.002546011107183587	-0.1922832478859857	6.891376034947318e-05	0.00295692994043838	-0.1466980690478408	0.1008480445853012	0.01716906773015569	0.16880513994711	7.414037032497752	-7.391064661685738	-0.6602379185564836	-9.462041926558395	-450.2752757612963	-71.50407755744534	-12.44163343136609	0.9219929241722918	0.8015369459139828	-0.09803767250220795	-2.64124863516551	0.09736443712221633	-0.577648942748833	1.590818324138032	-1.54920232423333	-1.549202324233328	-0.3851384791372158	0.01191221834139835	0.01998712996961297	0.1127345504536875	-1.362005138140709e-07	-1.840083137470831e-07	1.104887266235294e-06	-2.059381613622865e-10	-4.016707264205861e-07	4.951778886935716e-07	-2.249423695544953e-07
0.55	-0.474900156183634	-0.08440953556387626	0.7509596442335138	1.322554555675682	-0.3498690279388905	-0.04438771224923856	-0.4202735356668189	0.779594910839405	0.7795949108393919	-0.04171035475146646	-0.1745220842474762	0.04220515334314288	0.08380890508925234	-1.25654789584892	-0.364705907882612	-0.5108823026740024	2.758046605668013	0.04507890763543226	0.4089467099133773	-0.206102845565529	1.279537942084948	1.279537942084949	0.1859964728372531	0.0002280587020645084	-0.1291561531214292	0.003297241393140161	-0.1990706874603616	0.0004679815206932444	0.002447365848356335	-0.1469031421744717	0.1021736622106372	0.0179233424496299	0.1733802279052529	7.680239712355711	-7.635006414468455	-0.7701238856429723	-9.626590377666002	-453.9944921997766	-71.66376201958329	-11.90839848919919	1.043918697646271	0.8207932649925406	-0.02285169500624613	-2.898080356491703	0.04517198599198684	-0.5636542592473164	1.543800851329566	-1.672990856795326	-1.672990856799748	-0.5017084446382709	-0.0002615938201207167	0.01025967573472781	0.05472078191340148	-1.494502055807239e-07	-3.022148258991051e-08	1.306415007985514e-06	3.824349921384338e-08	-4.008907193039238e-07	5.336845331377732e-07	-2.273329283512373e-07
0.5600000000000001	-0.4874122931527251	-0.08801531652374209	0.7458508511094606	1.349987096590895	-0.3494153465953576	-0.04032786106657445	-0.4222571663050205	0.7923048599798014	0.7923048599797823	-0.03987358700270185	-0.174519842162348	0.04091433739484492	0.08384536274332652	-1.245720327300557	-0.3564223713190588	-0.5107543490850387	2.728096828498269	0.04564650837532336	0.4029652385764916	-0.1906520745577991	1.262259304597644	1.262259304597616	0.1813542924219463	0.0002067378989572649	-0.1290035235154444	0.00398461224896712	-0.2058581270347362	0.0008670492810380559	0.001937801756267353	-0.1471082153011027	0.1034992798359734	0.01867761716910534	0.1779553158633971	7.946136988140398	-7.880290328601634	-0.8782012817364488	-9.810279117037863	-457.7295040382912	-71.88123493655002	-11.38015150414245	1.112745120207442	0.8350869404475861	0.04766403886084513	-3.079267677385211	0.08342188741113732	-0.6492360946066295	1.556267344555457	-1.779928090927073	-1.779928090927066	-0.3884174840798693	-0.002315998965271589	0.02421305025471709	0.09996266442776101	-1.437302450403314e-07	3.078411953665471e-08	1.311847583993688e-06	4.720961635438434e-08	-3.671683132623377e-07	5.347142559622996e-07	-2.160901473275065e-07
